<svg xmlns="http://www.w3.org/2000/svg" viewBox="0 0 520 520" role="img" aria-label="Earth">
  <defs>
    <radialGradient id="ocean" cx="34%" cy="24%" r="76%">
      <stop offset="0%" stop-color="#a8edff"/>
      <stop offset="34%" stop-color="#2f9be7"/>
      <stop offset="72%" stop-color="#1555ad"/>
      <stop offset="100%" stop-color="#06225f"/>
    </radialGradient>
    <linearGradient id="land" x1="0%" y1="0%" x2="100%" y2="100%">
      <stop offset="0%" stop-color="#d7e978"/>
      <stop offset="44%" stop-color="#58bd68"/>
      <stop offset="100%" stop-color="#1d7b5b"/>
    </linearGradient>
    <linearGradient id="dryLand" x1="0%" y1="0%" x2="100%" y2="100%">
      <stop offset="0%" stop-color="#e8c66b"/>
      <stop offset="100%" stop-color="#77a85a"/>
    </linearGradient>
    <linearGradient id="ice" x1="0%" y1="0%" x2="0%" y2="100%">
      <stop offset="0%" stop-color="#ffffff"/>
      <stop offset="100%" stop-color="#d7f4ff"/>
    </linearGradient>
    <radialGradient id="shade" cx="32%" cy="22%" r="80%">
      <stop offset="0%" stop-color="rgba(255,255,255,.38)"/>
      <stop offset="52%" stop-color="rgba(255,255,255,0)"/>
      <stop offset="100%" stop-color="rgba(0,19,70,.48)"/>
    </radialGradient>
    <filter id="softShadow" x="-20%" y="-20%" width="140%" height="140%">
      <feDropShadow dx="0" dy="6" stdDeviation="5" flood-color="#07325f" flood-opacity=".24"/>
    </filter>
    <clipPath id="clip">
      <circle cx="260" cy="260" r="224"/>
    </clipPath>
  </defs>
  <circle cx="260" cy="260" r="239" fill="rgba(163,232,255,.42)"/>
  <circle cx="260" cy="260" r="224" fill="url(#ocean)"/>
  <g clip-path="url(#clip)">
    <g filter="url(#softShadow)">
      <path fill="url(#land)" d="M62 135c21-46 69-78 129-84 39-3 78 5 105 24 19 14 17 37-4 42-20 5-45-5-55 10-9 13 4 26-9 39-14 14-36-5-55 5-18 10-4 30-19 41-19 13-36-11-55-7-22 5-22 35-46 33-23-2-32-28-24-49 7-18 23-33 33-54Z"/>
      <path fill="url(#dryLand)" d="M214 188c42-23 99-22 130 4 18 15 18 38 3 52-16 15-41 2-51 20-10 17 14 38 4 63-12 31-52 37-77 17-24-19-13-46-28-66-15-19-50-14-55-42-4-22 25-37 74-48Z"/>
      <path fill="url(#land)" d="M356 91c47 17 86 55 101 103 8 26-15 42-45 31-22-8-37 6-37 28 0 19-22 28-40 17-19-13-16-41 4-60 18-17 9-40-16-50-28-11-24-51 33-69Z"/>
      <path fill="url(#dryLand)" d="M338 272c29-11 75 0 96 28 17 23 6 54-23 58-26 3-36-21-58-12-22 9-22 39-47 36-22-3-33-26-24-49 9-25 29-50 56-61Z"/>
      <path fill="url(#land)" d="M176 315c22 8 37 31 35 58-2 31-25 70-50 78-19 6-34-9-29-30 4-19 18-27 8-49-9-21-19-41-5-55 10-10 26-8 41-2Z"/>
      <path fill="url(#land)" d="M393 383c22-4 43 8 52 25 8 17-5 34-28 33-19-1-37-13-42-29-4-15 2-26 18-29Z"/>
      <path fill="url(#ice)" d="M35 88c75-35 197-49 312-30 63 11 111 32 136 57-20-78-111-133-224-133C157-18 68 27 35 88Z" opacity=".93"/>
      <path fill="url(#ice)" d="M30 430c76 32 197 44 309 27 66-10 116-31 146-60-43 82-128 137-225 137-103 0-192-61-230-104Z" opacity=".86"/>
    </g>
    <g fill="none" stroke="#ffffff" stroke-linecap="round" opacity=".34">
      <path stroke-width="17" d="M78 157c45-25 104-33 163-25"/>
      <path stroke-width="13" d="M278 121c55 0 99 15 134 43"/>
      <path stroke-width="16" d="M77 302c62 16 132 16 209 1"/>
      <path stroke-width="12" d="M311 319c48-5 87 2 119 22"/>
      <path stroke-width="10" d="M117 223c33-15 72-20 118-12"/>
      <path stroke-width="9" d="M337 220c31-6 64-2 98 11"/>
    </g>
    <path fill="rgba(255,255,255,.16)" d="M109 84c52-44 132-60 205-40-77 1-144 29-190 78-48 51-67 116-63 181-29-77-11-166 48-219Z"/>
    <circle cx="260" cy="260" r="224" fill="url(#shade)"/>
  </g>
  <circle cx="260" cy="260" r="224" fill="none" stroke="rgba(255,255,255,.7)" stroke-width="7"/>
  <circle cx="260" cy="260" r="230" fill="none" stroke="rgba(112,215,255,.45)" stroke-width="12"/>
</svg>
